<svg id="Capa_1" data-name="Capa 1" xmlns="http://www.w3.org/2000/svg" viewBox="0 0 170.59059 43.2218"><defs><style>.cls-1{fill:#ffc301;}</style></defs><circle class="cls-1" cx="32.97983" cy="21.02685" r="7.59846"/><path d="M17.726,21.25419a13.102,13.102,0,0,1-1.05462,5.23862A13.40738,13.40738,0,0,1,9.534,33.63028,13.10528,13.10528,0,0,1,4.29538,34.6849,13.86728,13.86728,0,0,1,.92,34.26287V27.04378a6.428,6.428,0,0,0,1.61734.67958,6.69957,6.69957,0,0,0,1.758.23436,6.56453,6.56453,0,0,0,2.61337-.52716A6.74655,6.74655,0,0,0,10.495,23.856a6.47678,6.47678,0,0,0,.52746-2.60176V1.0731H17.726Z" transform="translate(-0.92004 -1.0731)"/><path d="M46.79061,21.91058a13.522,13.522,0,0,1-1.00794,5.23863,13.10513,13.10513,0,0,1-2.74229,4.1956,12.82534,12.82534,0,0,1-4.06682,2.78913,12.73187,12.73187,0,0,1-9.985,0,12.84668,12.84668,0,0,1-6.83246-6.98473,13.51354,13.51354,0,0,1-1.00793-5.23863,13.72555,13.72555,0,0,1,1.00793-5.29737,12.97025,12.97025,0,0,1,2.754-4.2072,12.80554,12.80554,0,0,1,4.07842-2.77753,12.42281,12.42281,0,0,1,4.98077-1.00794,13.14813,13.14813,0,0,1,5.00427.94919,12.10053,12.10053,0,0,1,4.06682,2.69561,12.77785,12.77785,0,0,1,2.74229,4.1956A14.2,14.2,0,0,1,46.79061,21.91058Zm-6.44583,0a7.45267,7.45267,0,0,0-.504-2.801,6.66258,6.66258,0,0,0-1.37107-2.15639,5.9341,5.9341,0,0,0-2.02761-1.383,6.60386,6.60386,0,0,0-4.94568,0,5.81289,5.81289,0,0,0-2.01571,1.383A6.59858,6.59858,0,0,0,28.133,19.10955a7.6087,7.6087,0,0,0-.49221,2.801A7.24954,7.24954,0,0,0,28.133,24.606a6.75969,6.75969,0,0,0,1.34773,2.15639,6.30366,6.30366,0,0,0,2.01571,1.44141,5.9014,5.9014,0,0,0,2.47284.52746,6.26192,6.26192,0,0,0,2.47284-.49222,6.14749,6.14749,0,0,0,2.02761-1.383,6.49411,6.49411,0,0,0,1.37107-2.15623A7.47654,7.47654,0,0,0,40.34478,21.91058Z" transform="translate(-0.92004 -1.0731)"/><path d="M68.77654,31.75509a17.27471,17.27471,0,0,1-1.65242,1.32423,12.42753,12.42753,0,0,1-1.83994,1.07812,11.35745,11.35745,0,0,1-1.98062.72658,8.08588,8.08588,0,0,1-2.07446.2696,11.57527,11.57527,0,0,1-4.35962-.82026,10.59311,10.59311,0,0,1-5.9887-6.01235,12.83822,12.83822,0,0,1-.879-4.86344V9.58148h6.37549V23.45757a6.215,6.215,0,0,0,.38663,2.26183,4.957,4.957,0,0,0,1.04318,1.67592,4.35711,4.35711,0,0,0,1.53525,1.03143,5.03268,5.03268,0,0,0,1.88678.35154,3.98145,3.98145,0,0,0,1.86344-.45728A5.22267,5.22267,0,0,0,64.62778,27.114a5.79347,5.79347,0,0,0,1.03128-1.69926,5.2851,5.2851,0,0,0,.375-1.95713V9.58148h6.399V34.6849h-1.547Z" transform="translate(-0.92004 -1.0731)"/><path d="M83.70741,34.6849H77.30858V9.58148h1.547l2.1094,2.97681a11.31434,11.31434,0,0,1,7.59428-2.92981h5.64891v6.37533H88.55925a4.84742,4.84742,0,0,0-1.89853.375,4.81756,4.81756,0,0,0-2.95331,4.477Z" transform="translate(-0.92004 -1.0731)"/><path d="M103.58364,34.6849H97.185V9.58148h1.547l2.10939,2.43775a11.25675,11.25675,0,0,1,7.59429-2.93,10.8364,10.8364,0,0,1,4.33628.879,11.23519,11.23519,0,0,1,3.5627,2.41425,11.42967,11.42967,0,0,1,2.40266,3.5862,10.98129,10.98129,0,0,1,.879,4.37137V34.6849h-6.39883V20.34009a4.708,4.708,0,0,0-.375-1.86344,4.831,4.831,0,0,0-2.55508-2.56652,4.61787,4.61787,0,0,0-1.85169-.375,4.84439,4.84439,0,0,0-1.89838.375,4.7697,4.7697,0,0,0-2.57858,2.56652,4.69721,4.69721,0,0,0-.375,1.86344Z" transform="translate(-0.92004 -1.0731)"/><path d="M134.14846,28.54393a3.62587,3.62587,0,0,0,.75007.15212q.37473.03524.75008.03524a6.29186,6.29186,0,0,0,1.805-.25786,6.5096,6.5096,0,0,0,1.62908-.73832,6.07108,6.07108,0,0,0,1.35948-1.1718,6.164,6.164,0,0,0,.97268-1.5354l4.68782,4.71132a12.63464,12.63464,0,0,1-2.05111,2.27372,12.942,12.942,0,0,1-2.50778,1.711,12.54265,12.54265,0,0,1-2.83612,1.06637,12.86388,12.86388,0,0,1-3.05905.36329,12.672,12.672,0,0,1-9.059-3.72688,12.85717,12.85717,0,0,1-2.75419-4.18385,13.7595,13.7595,0,0,1-1.00793-5.33231,14.21514,14.21514,0,0,1,1.00793-5.43789A12.28953,12.28953,0,0,1,130.668,9.58148a12.94586,12.94586,0,0,1,4.98062-.96094,12.62066,12.62066,0,0,1,3.07049.375,12.85158,12.85158,0,0,1,5.36771,2.80088,12.73406,12.73406,0,0,1,2.06255,2.28532Zm3.28166-13.19636a3.71365,3.71365,0,0,0-.879-.211,8.44727,8.44727,0,0,0-.9025-.04684,6.40377,6.40377,0,0,0-2.47284.48046,5.888,5.888,0,0,0-2.01556,1.37123,6.46124,6.46124,0,0,0-1.34772,2.14464,7.67509,7.67509,0,0,0-.49222,2.82453q0,.35154.03494.79692.03525.44546.11718.90235.08208.457.19942.879a3.25055,3.25055,0,0,0,.30454.75008Z" transform="translate(-0.92004 -1.0731)"/><path d="M155.40782,44.24821V37.80239l3.563.04668a5.4144,5.4144,0,0,0,1.8047-.30454,6.20161,6.20161,0,0,0,1.60558-.84376,6.31,6.31,0,0,0,1.30073-1.27754,6.93652,6.93652,0,0,0,.91425-1.60558q-1.05462.44568-2.1448.89075a5.75954,5.75954,0,0,1-2.19148.44522A11.57661,11.57661,0,0,1,155.9,34.33336a10.59229,10.59229,0,0,1-5.98855-6.01235,12.84132,12.84132,0,0,1-.879-4.86344V9.58148h6.37534V23.45757a6.42538,6.42538,0,0,0,.38678,2.33216,4.83067,4.83067,0,0,0,1.04318,1.66433,4.16845,4.16845,0,0,0,1.53509.99588,5.34182,5.34182,0,0,0,1.88694.32835,3.981,3.981,0,0,0,1.86344-.45728,5.22747,5.22747,0,0,0,1.5354-1.20705,5.79643,5.79643,0,0,0,1.03112-1.69926,5.2851,5.2851,0,0,0,.375-1.95713V9.58148h6.44583V31.52073a12.62492,12.62492,0,0,1-1.03143,4.96887,12.90518,12.90518,0,0,1-2.75389,4.05523,13.14836,13.14836,0,0,1-4.06667,2.74214,12.34011,12.34011,0,0,1-4.96917,1.00793Z" transform="translate(-0.92004 -1.0731)"/></svg>