<?xml version="1.0" encoding="UTF-8"?>
<!DOCTYPE svg PUBLIC "-//W3C//DTD SVG 1.1//EN" "http://www.w3.org/Graphics/SVG/1.1/DTD/svg11.dtd">
<!-- Creator: CorelDRAW 2020 (64-Bit) -->
<svg xmlns="http://www.w3.org/2000/svg" xml:space="preserve" width="33.8666mm" height="33.8666mm" version="1.1" style="shape-rendering:geometricPrecision; text-rendering:geometricPrecision; image-rendering:optimizeQuality; fill-rule:evenodd; clip-rule:evenodd"
viewBox="0 0 332.69 332.69"
 xmlns:xlink="http://www.w3.org/1999/xlink"
 xmlns:xodm="http://www.corel.com/coreldraw/odm/2003">
 <defs>
  <style type="text/css">
   <![CDATA[
    .fil0 {fill:#C70039}
    .fil1 {fill:white}
   ]]>
  </style>
 </defs>
 <g id="Capa_x0020_1">
  <metadata id="CorelCorpID_0Corel-Layer"/>
  <rect class="fil0" x="0" y="0" width="332.69" height="332.69" rx="79.27" ry="79.27"/>
  <g id="_2296534579984">
   <path class="fil1" d="M93.86 197.09l61.39 -16.9c2.42,-0.68 4.59,-1.25 6.94,-1.95l41.07 -11.24c0.27,3.29 10.6,36.94 10.6,39.66 0,1.26 -11.52,3.93 -13.07,4.37l-89.12 24.73c-2.85,0.84 -4.57,1.52 -6.88,1.33l-8.28 -29.67c-0.57,-2.1 -2.61,-8.47 -2.67,-10.33zm136.75 -19.49c-2.35,0 -6.98,-1.09 -9.3,-1.64 -6.19,-1.46 -7.89,-0.66 -6.02,-8.55 3.09,-13.05 0.29,-12.38 13.69,-9.73 9.13,1.8 7.73,1.74 5.47,13.17 -0.58,2.94 -0.8,6.75 -3.85,6.75zm-141.2 4.79c-0.1,-1.22 -0.47,-2.15 -0.8,-3.3 -0.6,-2.04 -2.61,-9 -2.61,-10.38 0,-1.37 1.36,-1.39 2.42,-1.68l10.19 -2.8c21.96,-6.46 45.8,-12.46 67.95,-18.88 3.46,-1 25.91,-7.4 27.47,-7.4 1.52,0 2.18,3.95 2.81,6.42 0.31,1.24 0.64,2.38 1.03,3.76 0.3,1.07 0.84,2.48 0.95,3.83 -12.21,2.84 -28.11,8.09 -40.96,11.35 -13.13,3.34 -28.05,8.12 -40.96,11.35l-13.67 3.77c-2.42,0.68 -4.58,1.25 -6.94,1.95 -1.81,0.53 -5.34,1.27 -6.88,2.01zm-10.6 -14.02c0,3.9 1.5,7.04 2.53,11.14l8.26 29.68c1.92,6.79 3.53,13.07 5.47,19.83 2.34,8.19 3.04,18.15 15.15,14.51l78.13 -21.7c5.19,-1.46 26.42,-6.69 29.46,-8.83 5.53,-3.9 2.26,-11.88 0.78,-16.92 -0.3,-1.03 -0.73,-2.38 -0.99,-3.46 6.65,0.55 15.87,6.2 20.81,-1.42 1.47,-2.27 4.45,-18.93 5.39,-22.99l3.21 -15.59 -43.08 -8.89c-0.12,-1.42 -1.76,-7.21 -2.61,-8.67 -4.16,-7.13 -11.65,-3.68 -18.88,-1.55 -1.74,0.51 -3.4,0.92 -5.37,1.47 -7.78,2.19 -4.07,1.89 -11.63,0.4 -5.33,-1.05 -39.79,-8.75 -42.19,-8.75 -0.4,0.84 -0.72,3.18 -0.96,4.17 -0.37,1.58 -0.62,2.83 -0.95,4.52l-2.81 13.26c-0.83,3.69 1.12,2.45 -10.74,5.67 -5.78,1.57 -11.1,3.01 -16.88,4.66 -4.27,1.22 -12.11,2.28 -12.11,9.43z"/>
   <path class="fil1" d="M128.05 108.2l115.69 24.48c2.13,0.49 5.92,1.5 8.07,1.5 0.1,-4.67 1.9,-9.46 2.05,-13.69l0 -1.1c-0.09,-2.43 -0.86,-4.65 -2.98,-6.5 -2.78,-2.43 -17.89,-4.88 -21.72,-5.63 -24.63,-4.86 -50.5,-11.02 -75.04,-15.9 -4.96,-0.99 -12.01,-2.99 -16.84,-2.99 -3.65,0 -6.74,3.46 -7.43,6.93 -0.44,2.18 -0.6,3.94 -0.96,6.22 -0.39,2.42 -0.83,4.02 -0.83,6.69z"/>
   <path class="fil1" d="M110.96 228.88c1.3,0 11.28,-2.8 13.04,-3.37 5.28,-1.7 2.56,-6.53 0.78,-12.85 -2.56,-9.08 -2.32,-7.26 -13.34,-4.5 -9.63,2.41 -7.72,2.88 -4.92,13.53 0.69,2.63 1.22,7.18 4.44,7.18z"/>
  </g>
 </g>
</svg>
