<?xml version="1.0" encoding="UTF-8"?>
<!DOCTYPE svg PUBLIC "-//W3C//DTD SVG 1.1//EN" "http://www.w3.org/Graphics/SVG/1.1/DTD/svg11.dtd">
<!-- Creator: CorelDRAW 2020 (64-Bit) -->
<svg xmlns="http://www.w3.org/2000/svg" xml:space="preserve" width="33.8666mm" height="33.8666mm" version="1.1" style="shape-rendering:geometricPrecision; text-rendering:geometricPrecision; image-rendering:optimizeQuality; fill-rule:evenodd; clip-rule:evenodd"
viewBox="0 0 332.69 332.69"
 xmlns:xlink="http://www.w3.org/1999/xlink"
 xmlns:xodm="http://www.corel.com/coreldraw/odm/2003">
 <defs>
  <style type="text/css">
   <![CDATA[
    .fil0 {fill:#FFC301}
    .fil1 {fill:white}
   ]]>
  </style>
 </defs>
 <g id="Capa_x0020_1">
  <metadata id="CorelCorpID_0Corel-Layer"/>
  <rect class="fil0" x="0" y="0" width="332.69" height="332.69" rx="79.27" ry="79.27"/>
  <g id="_2296324984432">
   <path class="fil1" d="M104.92 177.48l66.83 0 0 11.14 -66.83 0 0 -11.14zm83.54 -44.56l38.99 0 0 11.14 -38.99 0 0 -11.14zm-71.01 22.97c-1.84,-1.23 -11.7,-8.04 -12.88,-8.35 1.32,-2.5 5.52,-7.91 5.92,-9.4 9.25,6.19 5.69,6.18 15.3,0.68 1.43,-0.82 6.95,-3.77 7.68,-4.86l-19.43 -9.53c0.79,-1.49 1.31,-2.84 2.14,-4.63 0.72,-1.54 1.96,-3.45 2.32,-4.99 2,0.17 14.47,7.03 18.11,8.69 1.05,0.48 8.06,4.12 8.84,3.92 1.01,-0.26 18.28,-11.22 20.39,-11.22 6.09,0 7.69,7.43 3.48,10.09l-47.69 27.5c-1.33,0.72 -2.57,1.72 -4.18,2.09zm71.01 -45.25l38.99 0 0 11.14 -38.99 0 0 -11.14zm-105.82 -6.96l0 91.9c0,2.91 1.59,6.5 3.23,8.6 3.27,4.18 7.25,6.76 13.82,6.72l97.47 -0c-0.44,-1.9 -1.22,-3.82 -1.87,-5.79 -0.68,-2.04 -1.29,-3.88 -1.91,-5.74 -2.1,-6.31 -10.84,-30.38 -10.84,-35.11 0,-15.26 16.17,-8.01 24.15,-5.35 4.95,1.65 9.4,3.14 14.36,4.79 4.94,1.65 9.49,3.16 14.36,4.79l14.32 4.83c0,-16.71 0,-33.42 0,-50.13 0,-10.25 1.8,-21.65 -3.23,-28.09 -1.33,-1.7 -1.48,-1.82 -3.11,-3.16 -2.03,-1.67 -5.43,-3.56 -8.97,-3.56l-136.45 0c-7.42,0 -15.32,7.89 -15.32,15.32z"/>
   <path class="fil1" d="M210.69 216.49l11.11 -10.89 11.14 10.96 11.31 -11.14 -10.96 -11.14c1.55,-2.26 10.35,-9.6 10.87,-11.57 -2.31,-0.19 -47.87,-16.17 -50.12,-16.36l16.66 50.14z"/>
   <polygon class="fil1" points="149.48,233.18 127.2,233.18 127.2,244.32 205.17,244.32 205.17,233.18 182.9,233.18 182.9,222.04 149.48,222.04 "/>
  </g>
 </g>
</svg>
