<?xml version="1.0" encoding="UTF-8"?>
<!DOCTYPE svg PUBLIC "-//W3C//DTD SVG 1.1//EN" "http://www.w3.org/Graphics/SVG/1.1/DTD/svg11.dtd">
<!-- Creator: CorelDRAW 2020 (64-Bit) -->
<svg xmlns="http://www.w3.org/2000/svg" xml:space="preserve" width="33.8666mm" height="33.8666mm" version="1.1" style="shape-rendering:geometricPrecision; text-rendering:geometricPrecision; image-rendering:optimizeQuality; fill-rule:evenodd; clip-rule:evenodd"
viewBox="0 0 332.69 332.69"
 xmlns:xlink="http://www.w3.org/1999/xlink"
 xmlns:xodm="http://www.corel.com/coreldraw/odm/2003">
 <defs>
  <style type="text/css">
   <![CDATA[
    .fil0 {fill:#5A1846}
    .fil1 {fill:white}
   ]]>
  </style>
 </defs>
 <g id="Capa_x0020_1">
  <metadata id="CorelCorpID_0Corel-Layer"/>
  <rect class="fil0" x="0" y="0" width="332.69" height="332.69" rx="79.27" ry="79.27"/>
  <g id="_2296558040000">
   <path class="fil1" d="M227.97 206.18l-26.9 0c-1.83,0 -3.4,-1.55 -3.4,-3.41l0 -12.94c0,-2.21 2.19,-3.4 4.43,-3.4l24.52 0c3.16,0 4.43,1.92 4.43,5.11 0,3.29 0.54,11.21 -0.81,13.15 -0.35,0.5 -1.61,1.49 -2.26,1.49zm25.54 -55.5l0 5.23c-0.16,2.6 -0.83,4.99 -3.16,6.94 -1.85,1.54 -3.78,2.48 -7.06,2.48 3.23,6.73 5.79,17.91 5.79,27.92l0 41.88c0,4.41 -4.36,9.19 -8.85,9.19l-13.28 0c-2.42,0 -5.21,-1.76 -6.38,-3.16 -3.46,-4.14 -2.47,-10.4 -2.47,-16.93l-103.51 0 0 8.51c0,6.21 -3.51,11.58 -8.85,11.58l-12.94 0c-4.94,0 -9.19,-4.25 -9.19,-9.19l0 -45.29c0,-4.33 0.99,-9.41 1.91,-13.07 0.28,-1.12 0.39,-1.96 0.69,-3.05l2.85 -8.39c-5.5,0 -9.87,-4.42 -9.87,-8.85l0 -4.57c0.19,-4.18 1.3,-8.71 6.81,-8.71 3.08,0 3.51,0.31 6.35,1.14 1.34,0.39 3.95,1.21 5.23,1.24 0.12,-1.43 1.5,-4.09 2.04,-5.45 2.08,-5.24 6.17,-16.29 9.09,-20.19 1.43,-1.92 1.76,-2.07 3.65,-3.5 6.55,-4.95 9.99,-4.23 17.56,-4.23l0 -18.05c0,-2.76 2.49,-5.79 5.11,-5.79l62.65 0c2.62,0 5.11,3.02 5.11,5.79l0 18.05 7.49 0c5.78,0 13.85,6.08 16.49,12.79l8.36 20.58c1.28,-0.03 3.89,-0.85 5.23,-1.24 1.63,-0.48 3.45,-1.14 5.33,-1.14 4.8,0 7.83,2.81 7.83,7.49zm-152.2 51.08l0 -10.9c0,-2.76 1.67,-4.43 4.43,-4.43l24.52 0c2.24,0 4.43,1.19 4.43,3.4l0 12.94c0,1.71 -1.69,3.41 -3.4,3.41l-26.56 0c-2.21,0 -3.4,-2.19 -3.4,-4.43zm2.38 -39.16c0,-2.37 3.49,-9.73 4.57,-12.45l9.95 -24.1c1.92,-3.47 5.76,-6.35 11.01,-6.35l74.57 0c4.73,0 8.73,3.02 10.45,6.24 0.99,1.86 1.66,3.81 2.48,5.69 0.88,1.99 1.59,4.01 2.44,6.07 1.05,2.55 9.49,21.86 9.49,24.22 0,3.72 -1.26,5.11 -7.15,5.11l-110.32 0c-3.06,0 -7.49,-0.61 -7.49,-4.43zm85.81 -66.74l4.77 0 0 16.34 -4.77 0 0 -16.34zm-53.12 0l16.34 0 0 3.06 -5.79 0 0 13.28 -4.77 0 0 -12.26c0,-1.57 -1.91,-1.02 -5.79,-1.02l0 -3.06zm33.71 0l5.11 0c0.59,1.11 2.23,4.15 3.06,4.77 0.84,-0.61 2.48,-3.66 3.06,-4.77l5.11 0c-0.5,1.89 -4.95,6.97 -5.45,8.85 1.2,1.79 4.73,5.48 5.79,7.49l-5.11 0c-0.45,-1.69 -2.61,-3.76 -3.06,-5.45l-0.68 0c-0.45,1.69 -2.61,3.76 -3.06,5.45l-9.87 0c-0.55,-1.15 -0.81,-2.6 -1.36,-3.75l-6.81 0c-0.14,1.66 -0.87,1.88 -1.02,3.75l-4.77 0 4.82 -12.21c0.48,-1.21 1.08,-2.93 1.65,-4.13l5.79 0c0.34,1.46 0.9,2.58 1.46,3.99l5.35 12.02c0.29,-1.08 1.55,-2.25 2.58,-3.55l2.87 -3.6c-0.31,-1.17 -2.02,-3.38 -2.72,-4.43l-2.72 -4.43z"/>
   <path class="fil1" d="M159.19 105.39c5.81,0 2.48,-0.32 1.36,-5.11 -0.18,0.21 -3.6,5.11 -1.36,5.11z"/>
  </g>
 </g>
</svg>
